<?xml version="1.0" standalone="no"?>
<!DOCTYPE svg PUBLIC "-//W3C//DTD SVG 20010904//EN"
 "http://www.w3.org/TR/2001/REC-SVG-20010904/DTD/svg10.dtd">
<svg version="1.0" xmlns="http://www.w3.org/2000/svg"
 width="801.000000pt" height="1206.000000pt" viewBox="0 0 801.000000 1206.000000"
 preserveAspectRatio="xMidYMid meet">

<g transform="translate(0.000000,1206.000000) scale(0.100000,-0.100000)"
fill="#000000" stroke="none">
<path d="M4521 11340 c-88 -23 -253 -40 -322 -35 -31 3 -48 1 -44 -5 3 -6 -3
-10 -14 -10 -10 0 -21 4 -23 8 -4 10 -152 -1 -231 -17 -42 -9 -62 -19 -73 -37
-9 -13 -24 -24 -34 -24 -10 0 -28 -6 -41 -13 -51 -26 -52 -28 -33 -48 19 -21
9 -24 -31 -9 -21 8 -35 7 -59 -6 -17 -9 -57 -17 -89 -19 -63 -2 -80 -14 -74
-52 3 -14 -1 -23 -8 -23 -7 0 -30 -16 -51 -35 -21 -19 -46 -35 -56 -35 -33 0
-141 -64 -130 -77 1 -2 2 -6 1 -10 -4 -29 -3 -50 3 -64 6 -13 -3 -20 -37 -34
-39 -17 -44 -23 -50 -59 -5 -36 -26 -91 -57 -150 -11 -21 5 -46 16 -27 15 24
21 8 18 -46 -2 -40 1 -61 11 -68 12 -9 57 -93 57 -107 0 -4 13 -36 30 -71 16
-36 30 -73 30 -83 0 -9 7 -53 16 -98 13 -66 21 -86 45 -106 40 -35 52 -111 20
-137 -28 -24 -40 -83 -17 -83 16 0 17 -14 15 -133 -1 -74 0 -138 3 -143 3 -5
9 -29 12 -54 7 -47 16 -70 47 -131 11 -20 19 -43 19 -50 0 -7 10 -33 22 -57
17 -36 19 -48 9 -61 -6 -9 -19 -29 -29 -45 -63 -105 -113 -175 -129 -179 -10
-3 -43 -11 -73 -17 -30 -7 -120 -39 -200 -70 -196 -78 -285 -105 -442 -134
-102 -19 -185 -43 -344 -102 -168 -62 -219 -77 -259 -76 -42 2 -56 -3 -83 -25
-45 -38 -51 -76 -45 -252 l5 -146 -36 -79 c-20 -43 -45 -90 -56 -103 -10 -13
-26 -45 -34 -71 -9 -26 -44 -101 -77 -167 -34 -66 -75 -146 -92 -179 -16 -32
-32 -77 -34 -100 -3 -22 -21 -69 -41 -104 -29 -53 -35 -75 -37 -135 -2 -40
-10 -91 -18 -113 -9 -23 -32 -109 -51 -190 -48 -195 -58 -232 -95 -337 -17
-49 -34 -114 -37 -145 -7 -68 -78 -476 -95 -547 -11 -47 -10 -55 15 -106 14
-31 26 -61 26 -67 0 -6 25 -78 56 -159 63 -170 133 -305 213 -415 76 -103 132
-184 212 -303 37 -55 97 -129 134 -165 38 -37 79 -89 96 -122 16 -33 41 -64
58 -74 l30 -18 -5 -195 c-2 -108 -7 -209 -10 -226 -3 -16 -23 -59 -44 -95 -95
-163 -150 -268 -150 -285 0 -11 34 -52 78 -95 l79 -75 7 -185 c4 -102 9 -266
11 -365 6 -213 9 -249 41 -414 25 -131 50 -187 120 -269 17 -21 34 -46 37 -57
10 -32 35 -361 47 -595 5 -118 19 -314 30 -435 23 -260 47 -596 56 -786 l7
-137 -144 -5 c-354 -14 -1236 -40 -1811 -53 l-308 -7 0 -22 c0 -13 6 -25 13
-28 9 -4 9 -7 0 -18 -30 -31 -15 -39 72 -39 50 0 85 4 85 10 0 6 5 10 11 10 5
0 7 -5 4 -10 -3 -6 -1 -10 4 -10 6 0 11 8 11 18 1 16 1 16 14 0 12 -16 74 -17
920 -17 781 0 907 2 902 14 -3 8 -1 17 5 21 6 3 13 -3 16 -15 l5 -21 1562 0
c1236 0 1565 3 1575 12 11 11 14 10 18 0 6 -16 571 -16 590 0 9 7 13 7 13 0 0
-7 42 -11 125 -11 120 0 145 7 108 28 -14 7 -12 9 10 8 19 -2 27 -7 27 -20 0
-17 10 -18 118 -16 67 2 121 7 125 13 6 8 10 7 14 -1 2 -7 19 -13 36 -13 32 1
32 1 8 14 l-24 13 27 7 c31 8 46 1 46 -20 0 -19 26 -18 34 1 3 8 3 22 0 30 -4
8 -1 15 5 15 7 0 11 7 9 16 -2 10 3 19 10 21 8 3 10 -1 6 -12 -6 -15 -2 -16
25 -10 31 7 32 6 26 -22 -4 -15 -8 -34 -11 -40 -2 -7 3 -13 10 -13 8 0 14 6
13 13 -1 36 4 47 24 47 16 0 20 -5 16 -19 -2 -10 0 -25 5 -32 7 -11 8 -9 4 5
-5 15 -2 17 14 13 11 -3 20 -1 20 4 0 5 5 9 11 9 6 0 9 -6 6 -14 -3 -8 1 -17
10 -20 22 -9 28 0 14 18 -10 12 -9 15 8 13 13 -1 21 -8 21 -19 0 -15 9 -18 50
-18 33 0 51 4 52 13 0 6 2 17 2 23 1 6 7 19 15 28 7 9 10 16 5 16 -5 0 -2 5 6
10 13 8 12 11 -5 24 -11 9 -28 16 -37 16 -10 0 -18 5 -18 11 0 7 7 8 18 4 9
-5 32 -13 50 -19 17 -6 32 -14 32 -18 0 -14 30 -8 36 6 3 8 13 12 25 9 23 -6
23 -3 4 43 -18 44 -14 53 25 52 29 -1 30 -2 15 -25 -9 -12 -11 -23 -5 -23 5 0
10 4 10 10 0 5 15 13 33 18 17 6 41 13 52 17 14 4 13 2 -5 -10 -23 -15 -23
-15 -3 -10 18 5 22 3 17 -9 -4 -10 -1 -16 7 -16 11 0 11 -2 0 -12 -11 -11 -14
-10 -18 0 -3 6 -13 12 -24 12 -10 0 -19 5 -19 10 0 19 -16 10 -17 -10 -1 -14
4 -20 18 -20 11 0 19 -7 19 -16 0 -15 -10 -14 -56 3 -15 6 -13 -58 3 -74 6 -7
18 -13 27 -13 8 0 18 -5 22 -12 5 -8 2 -9 -9 -5 -14 5 -15 3 -4 -13 6 -11 16
-20 20 -20 9 0 6 50 -4 76 -2 7 1 11 6 11 6 -1 9 -7 7 -14 -2 -8 7 -13 22 -13
14 0 28 -4 31 -10 3 -5 15 -10 26 -10 13 0 19 -6 17 -17 -2 -15 5 -19 40 -21
23 -2 41 0 40 5 -4 12 31 58 38 50 4 -4 1 -13 -6 -22 -18 -22 -9 -27 66 -33
49 -4 65 -2 60 7 -4 6 -1 11 8 11 9 0 16 -4 16 -9 0 -12 64 6 68 19 6 17 22
11 22 -8 0 -12 8 -18 25 -20 14 -1 25 3 25 10 0 6 -11 26 -25 44 -27 35 -32
54 -14 54 5 0 7 5 4 10 -8 13 5 13 25 0 10 -6 11 -10 3 -10 -20 0 -16 -14 13
-46 21 -24 25 -26 22 -9 -2 11 -7 23 -12 26 -13 10 1 39 18 39 16 0 29 -37 15
-46 -16 -10 -10 -24 11 -24 11 0 20 -4 20 -10 0 -5 -4 -10 -8 -10 -5 0 -9 -7
-9 -15 0 -8 7 -15 14 -15 8 0 11 5 8 10 -3 6 1 10 10 10 12 0 15 5 11 16 -4
12 -2 15 9 10 8 -3 15 -1 15 4 0 6 7 10 15 10 19 0 19 9 -1 31 -15 17 -14 18
35 14 29 -2 57 -8 64 -14 7 -5 32 -13 55 -17 35 -5 42 -4 42 10 0 9 7 16 15
16 8 0 15 7 15 15 0 8 0 17 0 20 0 3 -3 5 -7 4 -5 -1 -7 -5 -5 -10 1 -5 -2 -9
-7 -9 -5 0 -11 8 -13 18 -6 22 37 29 46 7 3 -8 12 -12 21 -9 11 5 15 -1 15
-22 0 -21 -3 -25 -11 -17 -21 21 -65 -8 -60 -39 0 -4 -4 -19 -9 -33 -7 -19 -6
-25 4 -25 15 0 39 57 30 71 -3 5 6 9 20 9 27 0 44 -16 24 -22 -6 -2 -8 -10 -4
-16 4 -7 12 -10 17 -6 11 7 8 124 -3 124 -4 0 -8 7 -8 15 0 8 5 15 10 15 6 0
10 37 10 90 l0 90 -1585 -2 c-871 -1 -1587 0 -1589 3 -7 7 47 378 160 1097 50
318 51 326 90 444 24 72 52 134 86 185 28 43 66 112 85 153 19 41 49 105 68
141 19 36 46 102 60 146 14 44 39 97 55 118 30 38 30 38 29 164 0 69 2 324 5
566 3 242 2 466 -1 497 -5 51 -8 56 -24 48 -10 -6 -20 -10 -24 -10 -6 0 24 62
34 70 3 3 14 20 23 38 28 52 6 36 -32 -24 -23 -37 -36 -50 -38 -39 -2 9 3 24
10 33 20 24 41 93 36 123 -2 16 5 32 22 48 14 13 17 18 8 11 -10 -7 -18 -11
-19 -9 0 2 -2 11 -4 19 -2 8 -5 26 -8 40 -3 14 -10 38 -16 54 -9 21 -8 32 0
42 9 12 9 13 -3 9 -9 -4 -19 4 -28 22 -7 17 -14 23 -17 15 -3 -7 0 -19 6 -26
14 -17 34 -125 34 -182 0 -27 -8 -52 -22 -72 -12 -18 -61 -114 -108 -214 -79
-170 -114 -228 -135 -228 -5 0 -7 4 -4 8 2 4 -4 8 -15 8 -10 0 -19 -4 -19 -8
0 -4 -3 -7 -7 -7 -5 1 -21 1 -38 0 l-30 -2 25 -10 c14 -6 35 -8 48 -6 12 2 22
3 22 2 0 -2 -37 -25 -82 -52 -95 -57 -157 -83 -195 -83 -35 0 -64 35 -56 69 8
34 2 31 75 41 111 16 124 29 22 23 -63 -4 -93 -2 -98 6 -4 6 -23 11 -42 11
-51 0 -86 40 -48 54 9 3 27 6 40 6 15 0 24 6 24 15 0 8 -7 15 -15 15 -8 0 -15
5 -15 10 0 6 -6 10 -13 10 -7 0 -26 14 -43 31 -16 17 -53 46 -82 65 -29 19
-61 49 -72 66 -24 39 -24 100 1 104 9 1 26 5 38 9 18 5 22 3 19 -11 -2 -14 6
-20 34 -24 20 -4 48 -14 61 -23 22 -14 27 -14 37 -2 6 8 37 24 68 35 89 33
145 97 122 140 -8 15 -4 26 21 55 17 19 27 35 21 35 -5 0 -15 -6 -21 -14 -7
-8 -31 -24 -54 -35 -23 -12 -57 -31 -74 -42 -53 -33 -126 -49 -173 -37 -52 14
-113 78 -108 116 3 25 7 27 63 33 33 3 71 12 85 19 31 16 129 98 152 127 21
24 127 88 202 119 34 15 52 29 54 42 2 11 15 30 30 43 l27 24 -22 -26 c-33
-37 -28 -70 6 -36 10 10 11 9 6 -3 -8 -21 120 -62 136 -44 6 7 8 17 5 23 -7
10 59 71 77 71 16 0 59 -29 70 -47 4 -7 14 -13 21 -13 20 0 49 -38 42 -55 -3
-9 -2 -13 4 -10 11 7 63 -29 54 -37 -2 -3 9 -38 25 -78 22 -54 28 -78 20 -91
-7 -15 -6 -17 6 -13 9 4 16 0 17 -7 7 -65 4 -75 -26 -109 l-31 -35 32 29 c39
35 52 29 27 -13 -43 -73 50 -55 101 19 13 19 34 57 45 84 12 26 37 73 56 105
41 68 104 262 104 322 0 24 7 67 16 94 8 28 19 74 24 104 8 44 18 63 50 96 35
35 43 51 49 97 5 39 19 72 48 116 22 33 44 78 47 99 4 21 22 101 41 178 43
181 59 293 51 358 -5 42 -1 65 21 122 26 68 26 71 11 127 -8 32 -11 63 -6 70
14 23 8 61 -16 103 -16 26 -27 65 -31 106 -8 79 -30 150 -56 184 -13 15 -26
58 -35 108 -8 45 -20 100 -28 122 -8 22 -17 71 -21 110 -4 38 -20 106 -36 150
-17 46 -31 105 -33 140 -1 33 -12 83 -24 110 -12 28 -26 70 -32 95 -7 25 -20
59 -30 75 -10 17 -25 59 -34 95 -8 36 -33 112 -55 169 -25 65 -38 113 -35 127
8 30 -12 91 -43 132 -23 31 -24 34 -12 111 16 106 2 193 -43 268 -39 64 -75
89 -143 98 -104 14 -276 76 -464 169 -104 51 -222 103 -262 115 -41 12 -130
46 -199 75 -117 49 -126 55 -149 96 -22 40 -25 42 -38 25 -12 -17 -13 -17 -13
-1 0 32 32 80 104 157 48 51 84 101 110 155 22 43 45 91 53 106 7 14 13 34 13
43 0 9 11 40 25 69 21 45 25 64 21 117 -3 35 -1 78 4 94 29 98 28 114 -9 159
-19 23 -7 109 24 170 14 27 25 62 25 77 0 50 30 172 50 204 27 43 62 154 55
175 -7 21 9 67 21 60 4 -3 11 10 15 28 3 17 2 32 -3 32 -5 0 1 13 12 28 20 27
19 62 -2 62 -6 0 -7 7 -4 16 4 10 -3 25 -18 39 -14 13 -22 26 -19 29 4 3 1 6
-5 6 -14 0 -5 28 18 55 22 25 60 100 60 117 0 8 8 30 19 51 10 20 16 35 12 33
-3 -2 -6 15 -7 39 -2 89 -36 138 -154 218 -91 62 -117 77 -139 77 -9 0 -22 5
-27 10 -19 19 -107 19 -183 0z m-258 -59 c29 -2 19 -17 -14 -19 -16 -1 -33 -3
-37 -3 -20 -3 -32 3 -32 16 0 11 9 14 33 11 17 -2 40 -4 50 -5z m54 3 c-3 -3
-12 -4 -19 -1 -8 3 -5 6 6 6 11 1 17 -2 13 -5z m658 -173 c-5 -19 8 -44 21
-39 5 1 10 -15 11 -37 1 -38 1 -38 -5 -7 -4 18 -11 31 -17 30 -5 -2 -15 18
-22 44 -6 26 -14 53 -18 60 -4 7 3 2 14 -11 12 -13 19 -31 16 -40z m-610 -358
c79 -31 145 -68 145 -83 0 -5 11 -12 25 -16 56 -14 87 -83 99 -221 5 -58 9
-67 44 -103 13 -14 33 -48 44 -75 17 -45 19 -73 18 -265 -1 -240 -11 -333 -39
-382 -11 -18 -28 -48 -37 -66 -12 -24 -19 -30 -25 -20 -7 10 -9 9 -9 -4 0 -10
-5 -18 -10 -18 -7 0 -7 -6 -1 -17 19 -35 28 -78 20 -98 -6 -16 -8 -13 -8 15
-1 19 -6 42 -11 50 -9 13 -13 12 -30 -9 -16 -19 -23 -21 -35 -11 -12 10 -16 8
-24 -13 -5 -13 -17 -27 -27 -31 -9 -4 -14 -9 -10 -13 11 -11 -25 -41 -44 -36
-14 4 -20 18 -25 56 -12 84 -27 110 -76 131 -75 31 -83 36 -103 62 -13 19 -15
29 -7 37 6 6 11 19 11 29 0 24 -31 23 -80 -2 -48 -24 -147 -23 -197 3 -18 10
-39 17 -48 17 -21 0 -30 -27 -15 -45 23 -28 -26 -65 -123 -95 -39 -12 -86 -64
-112 -125 -20 -46 -24 -46 -71 -15 -25 18 -45 26 -49 20 -3 -5 -19 -10 -35
-10 -15 0 -31 -6 -34 -12 -3 -7 -3 4 -1 25 4 27 1 37 -9 37 -8 0 -17 6 -20 13
-3 6 -4 1 -1 -13 4 -25 -9 -59 -19 -49 -16 15 1 109 19 109 4 0 4 -4 0 -9 -3
-5 -1 -12 4 -15 20 -13 19 24 -2 39 -20 14 -22 14 -25 0 -2 -8 -8 -15 -13 -15
-5 0 -7 11 -3 25 4 15 2 25 -5 25 -6 0 -10 3 -9 8 0 4 -7 25 -18 47 -16 35
-19 71 -22 293 l-4 252 38 73 c81 156 88 171 78 174 -14 5 -5 132 12 165 15
29 84 98 98 98 5 0 30 14 56 30 42 27 154 56 230 59 24 1 224 21 240 24 8 2
53 2 100 0 64 -2 102 -9 155 -30z m-169 -1132 c-10 -11 -25 -17 -33 -14 -14 5
-13 8 3 20 10 7 24 13 32 13 12 0 12 -4 -2 -19z m484 -101 c0 -5 -4 -10 -10
-10 -5 0 -10 5 -10 10 0 6 5 10 10 10 6 0 10 -4 10 -10z m-531 -59 c10 -6 10
-10 2 -16 -16 -9 -131 5 -131 16 0 11 110 12 129 0z m-36 -73 c67 3 68 3 56
-19 -11 -21 -10 -22 32 -16 24 3 53 9 64 12 27 8 63 -23 75 -66 13 -43 -16
-143 -38 -134 -8 3 -23 -2 -33 -11 -17 -15 -20 -15 -43 0 -21 13 -27 13 -33 3
-13 -22 -53 -28 -54 -9 0 13 -3 11 -11 -5 -10 -21 -12 -22 -24 -5 -13 16 -13
16 -14 0 0 -10 -5 -18 -11 -18 -5 0 -7 5 -4 11 7 10 -21 38 -37 39 -5 0 -8
-13 -8 -30 0 -18 -5 -30 -13 -30 -21 0 -28 12 -15 27 15 18 1 30 -20 17 -13
-9 -20 -7 -29 5 -11 15 -12 14 -13 -1 0 -25 -19 -22 -30 5 -5 12 -9 16 -9 10
-1 -15 -72 -7 -82 8 -3 5 -14 7 -24 3 -15 -6 -17 -4 -12 15 4 17 1 24 -13 28
-26 7 -32 31 -17 73 18 51 39 79 54 73 7 -3 13 0 13 7 0 8 9 10 28 5 15 -4 32
-8 39 -9 7 -1 16 -5 19 -9 4 -4 20 -7 35 -7 19 0 28 6 32 21 5 18 10 20 39 12
18 -4 64 -7 101 -5z m-424 -60 c0 -28 -2 -30 -9 -13 -12 28 -12 45 0 45 6 0
10 -15 9 -32z m211 -182 c0 -2 -8 -10 -17 -17 -16 -13 -17 -12 -4 4 13 16 21
21 21 13z m541 -298 c-9 -20 -10 -18 -10 17 0 31 2 36 9 23 6 -10 7 -25 1 -40z
m940 -2684 c-22 -118 5 -234 72 -310 l38 -44 -25 -67 c-25 -65 -101 -219 -116
-236 -11 -12 -24 349 -17 463 8 124 26 222 41 217 6 -2 9 -13 7 -23z m-3201
-299 c0 -53 -14 -73 -27 -39 -3 9 -26 29 -51 45 l-44 28 28 6 c16 4 34 8 39
10 6 2 20 4 33 4 20 1 22 -3 22 -54z m3043 -1257 c-11 -13 -18 -29 -16 -35 3
-7 0 -13 -5 -13 -17 0 -8 39 13 54 29 22 32 19 8 -6z m63 -17 c-18 -19 -24
-31 -17 -36 12 -7 5 -25 -9 -25 -19 0 -2 60 21 79 34 28 37 16 5 -18z m-1258
-93 c7 -7 12 -31 12 -54 0 -34 -6 -48 -30 -71 -33 -30 -119 -69 -245 -110
-146 -46 -201 -94 -199 -173 2 -110 11 -129 98 -215 44 -44 103 -113 131 -153
27 -41 70 -93 94 -115 24 -23 58 -57 75 -74 16 -18 39 -33 51 -33 11 0 37 -11
58 -25 49 -34 51 -72 6 -115 -33 -31 -61 -42 -39 -15 25 30 -7 14 -70 -35
-108 -84 -105 -83 -150 -75 -22 4 -47 13 -55 21 -12 13 -15 12 -25 -6 -9 -17
-8 -19 7 -13 13 4 11 -2 -8 -22 -22 -23 -30 -25 -47 -16 -11 6 -27 11 -34 10
-7 0 -4 -5 7 -10 15 -7 11 -8 -15 -3 -19 3 -47 5 -62 5 -16 0 -28 4 -28 8 0 5
-8 11 -18 13 -11 3 -19 0 -19 -8 0 -8 5 -14 10 -14 5 0 4 -7 -3 -15 -18 -22
-72 -18 -136 10 -31 14 -62 25 -70 25 -7 0 -15 4 -18 9 -4 5 2 7 13 4 10 -3
22 0 25 6 4 6 -1 11 -11 12 -13 0 -12 3 7 10 18 8 35 7 58 -1 19 -7 36 -9 39
-6 3 3 -3 9 -13 13 -10 3 -30 13 -43 22 -13 8 -42 16 -65 19 -22 2 -52 10 -64
18 -13 9 -26 13 -30 10 -3 -3 0 -6 7 -6 7 0 9 -4 6 -10 -3 -5 -1 -10 4 -10 6
0 11 -4 11 -9 0 -4 -12 -6 -26 -3 -19 3 -25 1 -20 -6 5 -8 0 -9 -16 -3 -13 5
-22 16 -22 24 1 9 -4 13 -12 10 -8 -3 -14 -1 -14 5 0 6 -25 34 -56 64 -95 89
-134 129 -134 134 0 3 5 2 10 -1 7 -4 10 7 8 30 -2 29 3 42 23 59 14 12 23 28
21 35 -3 8 0 11 7 7 6 -4 9 -2 5 7 -3 8 6 28 20 45 15 16 26 37 26 47 0 9 4
14 9 11 13 -8 44 43 44 71 0 17 4 23 14 19 11 -4 13 -1 8 14 -4 14 -2 18 7 15
15 -6 41 42 31 58 -3 6 -1 7 4 4 11 -7 22 9 19 26 0 5 7 13 17 18 9 6 15 14
12 20 -4 5 -2 9 4 9 6 0 18 22 28 49 9 27 21 47 25 45 5 -3 7 -2 6 3 -1 4 10
60 26 125 l27 116 42 17 c23 9 78 20 122 25 124 13 320 57 420 94 50 18 78 19
93 4z m-113 -228 c-3 -5 -12 -10 -18 -10 -7 0 -6 4 3 10 19 12 23 12 15 0z
m160 -20 c27 -30 13 -33 -25 -5 -28 21 -30 25 -13 25 11 0 28 -9 38 -20z
m-225 6 c0 -3 -4 -8 -10 -11 -5 -3 -10 -1 -10 4 0 6 5 11 10 11 6 0 10 -2 10
-4z m298 -268 c-2 -28 -7 -33 -28 -33 -21 0 -26 5 -28 33 -3 30 -1 32 28 32
29 0 31 -2 28 -32z m-556 -2912 c0 -28 -5 -71 -13 -96 l-14 -45 -3 75 c-2 41
0 95 4 120 6 41 7 43 16 21 5 -14 9 -48 10 -75z m-12 -673 c0 -18 -4 -33 -10
-33 -5 0 -10 21 -10 48 0 34 3 43 10 32 5 -8 10 -30 10 -47z m3910 -168 c9
-11 9 -17 -2 -28 -7 -7 -19 -12 -26 -9 -10 3 -8 8 5 18 11 8 13 13 6 14 -7 0
-13 5 -13 10 0 15 16 12 30 -5z m45 2 c10 -8 14 -16 9 -19 -5 -3 -18 3 -28 13
-22 22 -9 26 19 6z m-143 -14 c10 -9 18 -20 18 -25 0 -16 -18 -8 -34 17 -19
29 -11 33 16 8z m456 -4 c3 -12 2 -12 -6 0 -5 7 -15 10 -21 7 -16 -10 -14 -26
4 -26 8 0 15 -5 15 -11 0 -6 -7 -8 -16 -5 -9 3 -20 6 -25 6 -15 0 -10 22 9 36
20 16 34 13 40 -7z m-1088 -5 c0 -2 -9 -4 -21 -4 -11 0 -18 4 -14 10 5 8 35 3
35 -6z m380 6 c0 -5 -2 -10 -4 -10 -3 0 -8 5 -11 10 -3 6 -1 10 4 10 6 0 11
-4 11 -10z m90 0 c0 -5 -5 -10 -11 -10 -5 0 -7 5 -4 10 3 6 8 10 11 10 2 0 4
-4 4 -10z m393 -23 c-7 -11 -23 2 -23 19 0 12 2 12 14 2 8 -7 12 -16 9 -21z
m-267 12 c4 -8 0 -9 -15 -4 -17 5 -20 3 -15 -10 4 -10 14 -15 26 -12 11 3 22
-2 28 -14 13 -22 32 -26 24 -4 -13 34 18 11 48 -36 12 -20 14 -29 5 -38 -8 -8
-7 -11 7 -11 9 0 14 -5 11 -10 -4 -6 -14 -10 -23 -9 -36 3 -52 -2 -52 -15 0
-15 -48 -36 -67 -29 -14 5 -18 39 -5 46 4 2 3 3 -3 2 -5 -1 -21 2 -34 6 -19 8
-21 12 -11 24 6 8 8 19 4 26 -4 8 -11 4 -20 -12 -7 -13 -10 -27 -8 -31 2 -3
-9 -9 -26 -13 -16 -4 -30 -11 -30 -16 0 -5 -4 -9 -10 -9 -5 0 -10 7 -10 15 0
9 -6 12 -15 9 -11 -5 -13 -2 -9 10 4 12 10 13 24 6 27 -14 38 -12 17 4 -15 12
-15 15 -2 26 11 9 15 9 15 1 0 -7 10 -11 23 -9 23 3 27 23 5 23 -7 0 -16 4
-20 9 -9 14 2 36 19 36 9 0 13 -6 9 -15 -3 -8 -2 -15 3 -15 13 0 87 39 75 40
-7 0 -14 9 -17 20 -4 16 0 20 18 20 13 0 27 -5 31 -11z m570 -16 c-7 -7 -26 7
-26 19 0 6 6 6 15 -2 9 -7 13 -15 11 -17z m-242 -9 c3 -9 10 -12 16 -9 5 3 18
1 27 -4 11 -7 13 -11 5 -11 -9 0 -11 -7 -7 -20 9 -27 -7 -25 -39 5 -15 14 -35
25 -44 26 -10 0 -12 3 -4 6 6 2 12 11 12 19 0 17 26 8 34 -12z m-904 12 c0 -3
-4 -8 -10 -11 -5 -3 -10 -1 -10 4 0 6 5 11 10 11 6 0 10 -2 10 -4z m55 -6 c-3
-5 -11 -10 -16 -10 -6 0 -7 5 -4 10 3 6 11 10 16 10 6 0 7 -4 4 -10z m89 -4
c8 3 16 -4 19 -17 7 -28 7 -28 -23 -31 -17 -2 -25 3 -28 15 -5 22 8 57 15 40
2 -7 10 -10 17 -7z m363 -12 c-9 -9 -28 6 -21 18 4 6 10 6 17 -1 6 -6 8 -13 4
-17z m472 17 c8 -5 9 -11 3 -15 -5 -3 -15 1 -22 9 -14 16 -3 20 19 6z m-1039
-42 c27 -24 31 -32 20 -39 -12 -8 -12 -10 1 -15 9 -3 20 -5 25 -4 5 1 16 1 24
0 13 -1 13 -2 0 -12 -11 -8 -8 -9 14 -4 26 5 27 5 12 -10 -9 -9 -16 -22 -16
-28 0 -7 -5 -4 -11 6 -15 25 -29 21 -30 -10 -1 -17 -3 -21 -6 -11 -2 9 -13 20
-24 23 -10 4 -19 13 -19 22 0 13 3 13 15 3 9 -7 18 -10 22 -6 11 10 -4 18 -39
19 -18 1 -34 8 -34 15 -1 6 -2 17 -3 22 -1 13 -31 13 -31 1 0 -5 8 -12 18 -14
9 -3 5 -4 -10 -4 -15 1 -30 7 -32 14 -7 18 29 34 61 28 25 -5 26 -5 6 4 -13 6
-23 15 -23 21 0 19 25 10 60 -21z m443 1 c30 -33 22 -45 -26 -34 -31 6 -32 6
-14 -13 33 -37 15 -45 -27 -12 -20 16 -24 24 -16 34 12 14 60 17 60 4 0 -5 5
-9 10 -9 19 0 10 28 -10 33 -11 3 -20 10 -20 16 0 19 16 12 43 -19z m442 21
c3 -5 1 -12 -4 -15 -5 -3 -11 1 -15 9 -6 16 9 21 19 6z m-130 -11 c-3 -5 -2
-10 4 -10 5 0 12 6 14 13 4 9 8 8 16 -3 10 -13 12 -13 20 0 6 8 13 11 17 8 3
-4 -1 -14 -9 -23 -9 -8 -19 -24 -22 -35 -7 -21 -25 -28 -25 -10 0 6 5 10 10
10 18 0 11 15 -12 25 -24 11 -36 35 -18 35 6 0 8 -4 5 -10z m362 -7 c3 -7 -3
-9 -16 -6 -12 3 -21 10 -21 15 0 13 32 6 37 -9z m33 7 c0 -5 -4 -10 -10 -10
-5 0 -10 5 -10 10 0 6 5 10 10 10 6 0 10 -4 10 -10z m-1820 -10 c0 -5 -2 -10
-4 -10 -3 0 -8 5 -11 10 -3 6 -1 10 4 10 6 0 11 -4 11 -10z m560 -5 c-7 -9
-16 -12 -19 -8 -4 4 -10 11 -15 16 -5 4 3 7 19 7 24 0 26 -2 15 -15z m-150 -5
c8 -5 11 -10 5 -10 -5 0 -17 5 -25 10 -8 5 -10 10 -5 10 6 0 17 -5 25 -10z
m1209 -4 c9 -11 6 -13 -14 -13 -25 0 -31 7 -18 20 10 10 19 8 32 -7z m149 -9
c9 -10 3 -12 -26 -8 -34 4 -35 5 -12 12 14 4 26 7 26 8 1 1 6 -5 12 -12z
m-1590 -8 c17 -1 21 -3 10 -6 -10 -2 -18 -5 -18 -6 0 -1 4 -17 9 -35 7 -24 7
-32 -1 -30 -6 2 -12 14 -13 27 -2 29 -24 42 -47 30 -13 -7 -18 -6 -18 5 0 16
19 26 38 20 8 -2 26 -5 40 -5z m587 -9 c3 -5 -1 -10 -9 -10 -9 0 -16 5 -16 10
0 6 4 10 9 10 6 0 13 -4 16 -10z m1070 -6 c-9 -9 -19 -13 -23 -10 -3 4 0 11 8
16 24 15 33 11 15 -6z m-1559 -8 c11 -11 11 -16 1 -19 -7 -3 -5 -6 6 -6 9 -1
17 -5 17 -11 0 -5 5 -10 10 -10 7 0 7 6 0 20 -9 16 -8 18 5 14 8 -3 12 -10 9
-15 -3 -5 0 -9 7 -9 31 0 -5 -13 -43 -16 -24 -2 -38 -1 -31 2 8 3 9 14 3 35
-10 32 -6 36 16 15z m105 -6 c10 0 19 -4 19 -10 0 -5 -6 -10 -12 -10 -19 1
-49 26 -41 34 4 4 9 2 11 -3 2 -6 12 -11 23 -11z m1254 7 c8 -9 10 -19 4 -28
-7 -12 -9 -11 -9 2 0 9 -7 16 -16 15 -9 0 -19 5 -21 12 -6 16 25 16 42 -1z
m-1598 -17 c13 0 23 -4 23 -10 0 -15 -39 -12 -56 4 -8 8 -14 18 -14 22 0 5 5
3 12 -4 7 -7 22 -12 35 -12z m-3817 -5 c0 -8 -7 -15 -15 -15 -13 0 -14 3 -3
15 16 18 18 18 18 0z m-543 -17 c-3 -8 -6 -5 -6 6 -1 11 2 17 5 13 3 -3 4 -12
1 -19z m4551 4 c6 -18 -15 -14 -22 4 -4 10 -1 14 6 12 6 -2 14 -10 16 -16z
m378 6 c-8 -4 -25 -4 -38 1 -20 8 -18 9 15 8 24 -1 32 -4 23 -9z m1004 2 c12
-8 11 -10 -7 -10 -13 0 -23 5 -23 10 0 13 11 13 30 0z m-5506 -8 c2 -4 -4 -9
-15 -9 -11 -1 -17 2 -14 8 7 11 22 12 29 1z m4006 -2 c8 -5 11 -13 6 -17 -5
-4 -11 -3 -13 4 -2 7 -11 9 -20 6 -11 -4 -14 -2 -9 5 9 14 16 15 36 2z m1349
-5 c-20 -20 -89 -32 -89 -16 0 7 9 9 23 6 15 -4 28 -1 36 9 8 9 21 16 29 16
15 0 15 -2 1 -15z m-1864 -4 c3 -5 1 -12 -5 -16 -5 -3 -10 1 -10 9 0 18 6 21
15 7z m305 5 c0 -3 -4 -8 -10 -11 -5 -3 -10 -1 -10 4 0 6 5 11 10 11 6 0 10
-2 10 -4z m75 -6 c3 -5 2 -10 -4 -10 -5 0 -13 5 -16 10 -3 6 -2 10 4 10 5 0
13 -4 16 -10z m1220 0 c3 -5 1 -10 -4 -10 -6 0 -11 5 -11 10 0 6 2 10 4 10 3
0 8 -4 11 -10z m-6815 -15 c0 -8 -7 -15 -16 -15 -14 0 -14 3 -4 15 7 8 14 15
16 15 2 0 4 -7 4 -15z m1840 -5 c0 -5 -4 -10 -10 -10 -5 0 -10 5 -10 10 0 6 5
10 10 10 6 0 10 -4 10 -10z m3500 6 c0 -3 -4 -8 -10 -11 -5 -3 -10 -1 -10 4 0
6 5 11 10 11 6 0 10 -2 10 -4z m425 -6 c3 -5 1 -10 -4 -10 -6 0 -11 5 -11 10
0 6 2 10 4 10 3 0 8 -4 11 -10z m-1155 -10 c0 -5 -2 -10 -4 -10 -3 0 -8 5 -11
10 -3 6 -1 10 4 10 6 0 11 -4 11 -10z"/>
<path d="M3628 10247 c-10 -8 -18 -17 -18 -21 0 -3 -18 -22 -40 -42 -22 -20
-40 -43 -40 -50 0 -19 3 -18 62 12 39 20 67 26 121 27 47 1 72 -3 75 -11 2 -7
8 -12 14 -12 5 0 15 -6 22 -12 10 -10 -2 -13 -60 -14 -77 -1 -151 -23 -177
-52 -8 -10 -14 -32 -13 -52 1 -30 5 -35 28 -35 14 -1 33 -7 42 -14 24 -20 32
-5 11 19 -17 19 -17 20 1 26 11 4 22 9 26 11 4 2 14 -12 23 -31 20 -42 55 -51
90 -24 14 11 25 26 25 35 0 10 6 13 16 9 9 -3 18 -6 20 -6 2 0 4 -9 4 -20 0
-15 7 -20 29 -20 32 0 47 15 43 43 -4 20 8 22 27 5 20 -19 7 59 -14 82 -17 18
-20 50 -6 50 13 0 6 33 -14 63 -19 30 -39 35 -175 42 -82 5 -109 3 -122 -8z
m247 -127 c3 -5 -1 -10 -10 -10 -9 0 -13 5 -10 10 3 6 8 10 10 10 2 0 7 -4 10
-10z m-70 -20 c11 -5 14 -9 7 -9 -7 -1 -10 -5 -7 -11 3 -5 -4 -10 -17 -11 -63
-3 -99 -9 -133 -23 -59 -25 -63 -18 -16 24 39 36 49 40 95 39 28 0 60 -4 71
-9z"/>
<path d="M4316 10245 c-40 -7 -74 -19 -81 -28 -9 -13 -14 -14 -25 -4 -10 10
-12 9 -7 -5 4 -11 2 -17 -5 -15 -17 3 -16 -62 1 -68 10 -4 8 -10 -8 -23 -12
-9 -23 -30 -24 -47 -2 -24 1 -29 17 -27 16 3 18 -1 13 -27 -5 -26 -3 -31 12
-31 11 0 27 -3 36 -7 14 -5 16 -2 10 16 -11 37 20 37 53 0 27 -30 33 -33 58
-24 16 6 35 24 44 40 8 17 16 32 18 34 3 6 52 -21 52 -29 0 -3 -9 -16 -20 -28
-25 -26 -19 -28 15 -6 14 9 34 14 45 11 38 -10 21 27 -25 56 -38 23 -57 27
-116 27 -52 0 -70 3 -67 13 3 6 14 16 26 22 12 5 22 13 22 17 0 5 10 9 23 10
12 1 -3 4 -33 7 -50 6 -53 8 -30 17 14 6 45 18 71 26 40 13 48 12 75 -2 40
-22 117 -51 122 -46 7 8 -19 46 -62 91 -41 42 -48 45 -93 44 -26 -1 -79 -7
-117 -14z m-31 -104 c-12 -10 -65 -24 -65 -16 0 7 40 24 60 24 8 1 10 -2 5 -8z"/>
<path d="M4420 10121 c0 -6 7 -11 15 -11 9 0 27 -12 41 -27 13 -14 37 -28 52
-29 27 -3 27 -3 -12 31 -21 19 -44 35 -51 35 -7 0 -20 3 -29 6 -9 3 -16 1 -16
-5z"/>
<path d="M3745 9930 c-3 -5 -1 -10 4 -10 6 0 11 5 11 10 0 6 -2 10 -4 10 -3 0
-8 -4 -11 -10z"/>
<path d="M4315 9920 c-3 -6 1 -7 9 -4 18 7 21 14 7 14 -6 0 -13 -4 -16 -10z"/>
<path d="M3944 9306 c-10 -26 12 -65 41 -72 14 -3 25 -9 25 -13 0 -3 7 -15 15
-25 12 -16 17 -17 30 -6 12 10 15 9 16 -6 1 -14 3 -13 8 5 4 16 17 27 34 32
39 11 57 28 57 54 0 30 -18 36 -127 42 -81 5 -93 4 -99 -11z"/>
<path d="M3657 3480 c3 -11 10 -20 15 -20 5 0 6 -6 2 -12 -4 -7 -4 -10 1 -6 4
4 23 -4 41 -19 48 -36 45 -8 -4 40 -42 41 -63 48 -55 17z"/>
<path d="M3445 3400 c-9 -14 61 -43 86 -35 29 9 23 22 -13 28 -18 3 -40 8 -49
12 -10 3 -20 1 -24 -5z"/>
<path d="M3530 3351 c0 -10 24 -21 48 -21 13 0 12 3 -4 15 -21 16 -44 19 -44
6z"/>
<path d="M3870 3320 c0 -5 5 -10 11 -10 5 0 7 5 4 10 -3 6 -8 10 -11 10 -2 0
-4 -4 -4 -10z"/>
<path d="M7330 160 c0 -5 -11 -10 -25 -10 -28 0 -34 -15 -9 -24 8 -3 12 -10 9
-16 -3 -5 1 -10 9 -10 8 0 22 -7 30 -16 15 -14 17 -14 22 0 7 17 34 22 34 6 0
-5 9 -10 20 -10 17 0 18 3 10 26 -6 14 -8 30 -4 35 8 13 -10 11 -24 -3 -10
-10 -15 -10 -21 1 -9 14 -31 7 -31 -10 0 -6 5 -7 10 -4 6 3 10 -1 10 -9 0 -22
-17 -20 -30 3 -13 26 -13 31 5 31 8 0 15 5 15 10 0 6 -7 10 -15 10 -8 0 -15
-4 -15 -10z"/>
<path d="M7366 54 c-9 -24 -7 -27 9 -10 17 17 19 26 6 26 -5 0 -12 -7 -15 -16z"/>
<path d="M3200 9923 c0 -47 14 -58 34 -28 14 21 15 29 5 41 -19 23 -39 17 -39
-13z"/>
<path d="M4856 9907 c-17 -13 -17 -15 -1 -46 19 -38 30 -32 39 22 8 41 -5 48
-38 24z"/>
<path d="M2815 9580 c-10 -17 25 -24 41 -9 12 13 11 15 -11 17 -13 1 -27 -3
-30 -8z"/>
<path d="M2600 9300 c0 -5 5 -10 10 -10 6 0 10 5 10 10 0 6 -4 10 -10 10 -5 0
-10 -4 -10 -10z"/>
<path d="M5366 4552 l-30 -37 37 34 c38 36 42 42 30 40 -5 0 -21 -17 -37 -37z"/>
<path d="M5427 4485 c-21 -19 -34 -35 -30 -35 5 0 24 16 43 35 44 45 36 45
-13 0z"/>
<path d="M5333 4474 c-3 -8 -2 -19 3 -24 5 -5 10 1 10 16 2 27 -4 31 -13 8z"/>
<path d="M5535 4263 c-44 -49 -44 -53 0 -11 21 21 37 39 35 41 -3 2 -18 -12
-35 -30z"/>
<path d="M5466 4073 c-6 -14 -5 -15 5 -6 7 7 10 15 7 18 -3 3 -9 -2 -12 -12z"/>
<path d="M6648 4053 c7 -3 16 -2 19 1 4 3 -2 6 -13 5 -11 0 -14 -3 -6 -6z"/>
<path d="M5030 3732 c0 -4 17 -6 38 -4 64 6 69 10 15 11 -29 0 -53 -3 -53 -7z"/>
<path d="M4825 3720 c-4 -6 13 -10 44 -10 28 0 51 5 51 10 0 6 -20 10 -44 10
-25 0 -48 -4 -51 -10z"/>
<path d="M4958 3723 c7 -3 16 -2 19 1 4 3 -2 6 -13 5 -11 0 -14 -3 -6 -6z"/>
<path d="M918 163 c6 -2 18 -2 25 0 6 3 1 5 -13 5 -14 0 -19 -2 -12 -5z"/>
<path d="M6960 75 c0 -8 4 -15 10 -15 5 0 7 7 4 15 -4 8 -8 15 -10 15 -2 0 -4
-7 -4 -15z"/>
<path d="M6895 71 c16 -8 13 -10 -18 -10 -26 -1 -37 -5 -34 -13 2 -7 15 -12
29 -10 15 2 29 -2 33 -7 11 -19 21 -12 20 16 0 22 -5 28 -25 30 -23 2 -23 2
-5 -6z"/>
<path d="M7808 55 c18 -15 37 -23 46 -19 9 3 24 0 33 -7 15 -12 16 -12 10 3
-4 11 -2 18 6 19 14 1 -91 28 -111 29 -8 0 0 -11 16 -25z"/>
<path d="M6495 50 c3 -5 13 -10 21 -10 8 0 12 4 9 10 -3 6 -13 10 -21 10 -8 0
-12 -4 -9 -10z"/>
<path d="M7101 33 c-7 -8 -11 -16 -8 -19 2 -2 10 2 17 11 17 20 9 27 -9 8z"/>
<path d="M7719 44 c-1 -2 -2 -9 -3 -16 0 -7 -12 -15 -26 -19 -14 -4 20 -7 75
-7 93 0 98 1 70 13 -17 8 -43 12 -59 9 -18 -4 -26 -2 -22 4 3 5 -3 12 -14 15
-11 3 -21 3 -21 1z"/>
<path d="M6500 21 c0 -6 5 -13 10 -16 6 -3 10 1 10 9 0 9 -4 16 -10 16 -5 0
-10 -4 -10 -9z"/>
<path d="M6866 20 c-16 -5 -17 -8 -4 -12 16 -7 45 7 32 14 -5 3 -18 2 -28 -2z"/>
<path d="M6990 20 c0 -5 5 -10 11 -10 5 0 7 5 4 10 -3 6 -8 10 -11 10 -2 0 -4
-4 -4 -10z"/>
<path d="M6930 10 l-25 -8 28 -1 c15 -1 27 4 27 9 0 6 -1 10 -2 9 -2 -1 -14
-5 -28 -9z"/>
<path d="M7580 10 c0 -5 7 -10 16 -10 8 0 12 5 9 10 -3 6 -10 10 -16 10 -5 0
-9 -4 -9 -10z"/>
</g>
</svg>
